<?xml version="1.0" encoding="iso-8859-1"?>
<!-- Generator: Adobe Illustrator 18.0.0, SVG Export Plug-In . SVG Version: 6.00 Build 0)  -->
<!DOCTYPE svg PUBLIC "-//W3C//DTD SVG 1.1//EN" "http://www.w3.org/Graphics/SVG/1.1/DTD/svg11.dtd">
<svg version="1.1" id="Capa_1" xmlns="http://www.w3.org/2000/svg" xmlns:xlink="http://www.w3.org/1999/xlink" x="0px" y="0px"
	 viewBox="0 0 60.001 60.001" style="enable-background:new 0 0 60.001 60.001;" xml:space="preserve">
<g>
	<path d="M26.762,28.377h-5.017c0.807-1.156,1.255-2.546,1.255-4c0-3.859-3.141-7-7-7s-7,3.141-7,7c0,1.454,0.448,2.844,1.255,4
		H4.238C1.901,28.377,0,30.278,0,32.615v8.447c0,0.441,0.289,0.83,0.711,0.957c0.425,0.131,0.879-0.037,1.122-0.404
		C2.764,40.214,4.321,39.377,6,39.377c2.757,0,5,2.243,5,5s-2.243,5-5,5c-1.679,0-3.236-0.837-4.167-2.238
		c-0.243-0.368-0.697-0.534-1.122-0.404C0.289,46.861,0,47.25,0,47.691v7.447c0,2.337,1.901,4.238,4.238,4.238h22.523
		c2.337,0,4.238-1.901,4.238-4.238V48.84c0-0.395-0.232-0.752-0.593-0.913s-0.78-0.094-1.075,0.169
		c-0.921,0.826-2.104,1.281-3.332,1.281c-2.757,0-5-2.243-5-5s2.243-5,5-5c1.228,0,2.411,0.455,3.332,1.281
		c0.294,0.264,0.714,0.33,1.075,0.169C30.768,40.666,31,40.309,31,39.914v-7.299C31,30.278,29.099,28.377,26.762,28.377z"/>
	<path d="M59.548,7.827c-0.473-0.866-1.254-1.496-2.2-1.774L39.375,0.775c-0.34-0.101-0.691-0.151-1.043-0.151
		c-1.627,0-3.083,1.092-3.542,2.654L33.703,6.98c-0.732-0.82-1.688-1.434-2.777-1.754c-0.551-0.161-1.119-0.243-1.689-0.243
		c-2.638,0-5.001,1.77-5.746,4.303c-0.45,1.535-0.276,3.154,0.49,4.559s2.034,2.426,3.569,2.877
		c0.552,0.161,1.119,0.243,1.689,0.243c0.542,0,1.078-0.074,1.595-0.218l-1.322,4.503c-0.277,0.946-0.17,1.944,0.303,2.81
		c0.473,0.866,1.254,1.496,2.2,1.774l3.703,1.087c-0.82,0.732-1.434,1.688-1.754,2.777c-0.93,3.168,0.892,6.504,4.06,7.436
		c0.552,0.161,1.12,0.243,1.69,0.243c2.639,0,5.001-1.77,5.745-4.303c0.319-1.09,0.32-2.225,0.026-3.284l4.501,1.321
		c0.34,0.101,0.691,0.151,1.043,0.151c1.627,0,3.083-1.092,3.541-2.653l1.98-6.74c0.125-0.424-0.043-0.878-0.412-1.119
		c-0.368-0.241-0.852-0.212-1.19,0.071c-1.013,0.852-2.414,1.154-3.694,0.777c-2.11-0.619-3.323-2.841-2.703-4.952
		c0.495-1.688,2.068-2.867,3.824-2.867c0.38,0,0.759,0.056,1.128,0.164c1.284,0.377,2.288,1.367,2.687,2.65
		c0.13,0.419,0.518,0.704,0.955,0.704c0.002,0,0.005,0,0.008,0c0.44-0.003,0.827-0.295,0.952-0.718l1.744-5.942
		C60.128,9.691,60.021,8.693,59.548,7.827z"/>
</g>
<g>
</g>
<g>
</g>
<g>
</g>
<g>
</g>
<g>
</g>
<g>
</g>
<g>
</g>
<g>
</g>
<g>
</g>
<g>
</g>
<g>
</g>
<g>
</g>
<g>
</g>
<g>
</g>
<g>
</g>
</svg>
